<svg xmlns="http://www.w3.org/2000/svg" version="1.1" xmlns:xlink="http://www.w3.org/1999/xlink" xmlns:svgjs="http://svgjs.dev/svgjs" width="2000" height="1247" viewBox="0 0 2000 1247"><g transform="matrix(1,0,0,1,-1.2121212121212466,0.504858299595071)"><svg viewBox="0 0 396 247" data-background-color="#ffffff" preserveAspectRatio="xMidYMid meet" height="1247" width="2000" xmlns="http://www.w3.org/2000/svg" xmlns:xlink="http://www.w3.org/1999/xlink"><g id="tight-bounds" transform="matrix(1,0,0,1,0.2400000000000091,-0.09999999999999432)"><svg viewBox="0 0 395.52 247.2" height="247.2" width="395.52"><g><svg></svg></g><g><svg viewBox="0 0 395.52 247.2" height="247.2" width="395.52"><g transform="matrix(1,0,0,1,75.54432,62.92554893617021)"><svg viewBox="0 0 244.43135999999998 121.34890212765957" height="121.34890212765957" width="244.43135999999998"><g><svg viewBox="0 0 244.43136 121.34890212765958" height="121.34890212765957" width="244.43135999999998"><g><svg viewBox="0 0 244.43136 121.34890212765958" height="121.34890212765958" width="244.43136"><g id="textblocktransform"><svg viewBox="0 0 244.43136 121.34890212765958" height="121.34890212765958" width="244.43136" id="textblock"><g><svg viewBox="0 0 244.43136 121.34890212765958" height="121.34890212765958" width="244.43136"><g transform="matrix(1,0,0,1,0,0)"><svg width="244.43136" viewBox="1.7999999999999998 -28 56.400000000000006 28" height="121.34890212765958" data-palette-color="#8eb4e5"><path d="M16.5-4L18-4Q18.2-3.2 18.2-2L18.2-2Q18.2-0.85 18 0L18 0 14 0Q13.8-0.85 13.8-2L13.8-2Q13.8-3.2 14-4L14-4 12.5-4Q12.3-4.85 12.3-6L12.3-6Q12.3-7.2 12.5-8L12.5-8 11-8Q10.8-8.85 10.8-10L10.8-10Q10.8-11.2 11-12L11-12 6-12Q6.2-11.2 6.2-10L6.2-10Q6.2-8.85 6-8L6-8Q6.2-7.2 6.2-6L6.2-6Q6.2-4.85 6-4L6-4Q6.2-3.2 6.2-2L6.2-2Q6.2-0.85 6 0L6 0 2 0Q1.8-0.85 1.8-2L1.8-2Q1.8-3.2 2-4L2-4Q1.8-4.85 1.8-6L1.8-6Q1.8-7.2 2-8L2-8Q1.8-8.85 1.8-10L1.8-10Q1.8-11.2 2-12L2-12Q1.8-12.85 1.8-14L1.8-14Q1.8-15.2 2-16L2-16Q1.8-16.85 1.8-18L1.8-18Q1.8-19.2 2-20L2-20Q1.8-20.85 1.8-22L1.8-22Q1.8-23.2 2-24L2-24Q1.8-24.85 1.8-26L1.8-26Q1.8-27.2 2-28L2-28 16-28Q16.2-27.2 16.2-26L16.2-26Q16.2-24.85 16-24L16-24 18-24Q18.2-23.2 18.2-22L18.2-22Q18.2-20.85 18-20L18-20 17-20Q17.2-19.2 17.2-18L17.2-18Q17.2-16.85 17-16L17-16 14-16Q14.2-15.2 14.2-14L14.2-14Q14.2-12.85 14-12L14-12 15-12Q15.2-11.2 15.2-10L15.2-10Q15.2-8.85 15-8L15-8 16.5-8Q16.7-7.2 16.7-6L16.7-6Q16.7-4.85 16.5-4L16.5-4ZM13-16Q12.8-16.85 12.8-18L12.8-18Q12.8-19.2 13-20L13-20Q12.8-20.85 12.8-22L12.8-22Q12.8-23.2 13-24L13-24 6-24Q6.2-23.2 6.2-22L6.2-22Q6.2-20.85 6-20L6-20Q6.2-19.2 6.2-18L6.2-18Q6.2-16.85 6-16L6-16 13-16ZM38-24Q38.2-23.2 38.2-22L38.2-22Q38.2-20.85 38-20L38-20Q38.2-19.2 38.2-18L38.2-18Q38.2-16.85 38-16L38-16Q38.2-15.2 38.2-14L38.2-14Q38.2-12.85 38-12L38-12Q38.2-11.2 38.2-10L38.2-10Q38.2-8.85 38-8L38-8Q38.2-7.2 38.2-6L38.2-6Q38.2-4.85 38-4L38-4Q38.2-3.2 38.2-2L38.2-2Q38.2-0.85 38 0L38 0 34 0Q33.8-0.85 33.8-2L33.8-2Q33.8-3.2 34-4L34-4Q33.8-4.85 33.8-6L33.8-6Q33.8-7.2 34-8L34-8Q33.8-8.85 33.8-10L33.8-10Q33.8-11.2 34-12L34-12Q33.8-12.85 33.8-14L33.8-14Q33.8-15.2 34-16L34-16Q33.8-16.85 33.8-18L33.8-18Q33.8-19.2 34-20L34-20 32.5-20Q32.7-19.2 32.7-18L32.7-18Q32.7-16.85 32.5-16L32.5-16Q32.7-15.2 32.7-14L32.7-14Q32.7-12.85 32.5-12L32.5-12 31.5-12Q31.7-11.2 31.7-10L31.7-10Q31.7-8.85 31.5-8L31.5-8Q31.7-7.2 31.7-6L31.7-6Q31.7-4.85 31.5-4L31.5-4 28.5-4Q28.3-4.85 28.3-6L28.3-6Q28.3-7.2 28.5-8L28.5-8Q28.3-8.85 28.3-10L28.3-10Q28.3-11.2 28.5-12L28.5-12 27.5-12Q27.3-12.85 27.3-14L27.3-14Q27.3-15.2 27.5-16L27.5-16Q27.3-16.85 27.3-18L27.3-18Q27.3-19.2 27.5-20L27.5-20 26-20Q26.2-19.2 26.2-18L26.2-18Q26.2-16.85 26-16L26-16Q26.2-15.2 26.2-14L26.2-14Q26.2-12.85 26-12L26-12Q26.2-11.2 26.2-10L26.2-10Q26.2-8.85 26-8L26-8Q26.2-7.2 26.2-6L26.2-6Q26.2-4.85 26-4L26-4Q26.2-3.2 26.2-2L26.2-2Q26.2-0.85 26 0L26 0 22 0Q21.8-0.85 21.8-2L21.8-2Q21.8-3.2 22-4L22-4Q21.8-4.85 21.8-6L21.8-6Q21.8-7.2 22-8L22-8Q21.8-8.85 21.8-10L21.8-10Q21.8-11.2 22-12L22-12Q21.8-12.85 21.8-14L21.8-14Q21.8-15.2 22-16L22-16Q21.8-16.85 21.8-18L21.8-18Q21.8-19.2 22-20L22-20Q21.8-20.85 21.8-22L21.8-22Q21.8-23.2 22-24L22-24Q21.8-24.85 21.8-26L21.8-26Q21.8-27.2 22-28L22-28 27-28Q27.2-27.2 27.2-26L27.2-26Q27.2-24.85 27-24L27-24 28.5-24Q28.7-23.2 28.7-22L28.7-22Q28.7-20.85 28.5-20L28.5-20 29.25-20Q29.45-19.2 29.45-18L29.45-18Q29.45-16.85 29.25-16L29.25-16 30.75-16Q30.55-16.85 30.55-18L30.55-18Q30.55-19.2 30.75-20L30.75-20 31.5-20Q31.3-20.85 31.3-22L31.3-22Q31.3-23.2 31.5-24L31.5-24 33-24Q32.8-24.85 32.8-26L32.8-26Q32.8-27.2 33-28L33-28 38-28Q38.2-27.2 38.2-26L38.2-26Q38.2-24.85 38-24L38-24ZM58.2-26Q58.2-24.85 58-24L58-24 52-24Q52.2-23.2 52.2-22L52.2-22Q52.2-20.85 52-20L52-20Q52.2-19.2 52.2-18L52.2-18Q52.2-16.85 52-16L52-16Q52.2-15.2 52.2-14L52.2-14Q52.2-12.85 52-12L52-12Q52.2-11.2 52.2-10L52.2-10Q52.2-8.85 52-8L52-8Q52.2-7.2 52.2-6L52.2-6Q52.2-4.85 52-4L52-4Q52.2-3.2 52.2-2L52.2-2Q52.2-0.85 52 0L52 0 48 0Q47.8-0.85 47.8-2L47.8-2Q47.8-3.2 48-4L48-4Q47.8-4.85 47.8-6L47.8-6Q47.8-7.2 48-8L48-8Q47.8-8.85 47.8-10L47.8-10Q47.8-11.2 48-12L48-12Q47.8-12.85 47.8-14L47.8-14Q47.8-15.2 48-16L48-16Q47.8-16.85 47.8-18L47.8-18Q47.8-19.2 48-20L48-20Q47.8-20.85 47.8-22L47.8-22Q47.8-23.2 48-24L48-24 42-24Q41.8-24.85 41.8-26L41.8-26Q41.8-27.2 42-28L42-28 58-28Q58.2-27.2 58.2-26L58.2-26Z" opacity="1" transform="matrix(1,0,0,1,0,0)" fill="#8eb4e5" class="wordmark-text-0" data-fill-palette-color="primary" id="text-0"></path></svg></g></svg></g></svg></g></svg></g></svg></g></svg></g><path d="M240.04 56.926L240.04 9.268 11.376 9.268 11.376 237.932 240.04 237.932 240.04 190.274 229.097 190.274 229.097 226.989 22.319 226.989 22.319 20.211 229.097 20.211 229.097 56.926Z" fill="#8eb4e5" stroke="transparent" data-fill-palette-color="tertiary"></path></svg></g><defs></defs></svg><rect width="395.52" height="247.2" fill="none" stroke="none" visibility="hidden"></rect></g></svg></g></svg>