<svg xmlns="http://www.w3.org/2000/svg" version="1.1" xmlns:xlink="http://www.w3.org/1999/xlink" xmlns:svgjs="http://svgjs.dev/svgjs" width="2000" height="2250" viewBox="0 0 2000 2250"><g transform="matrix(1,0,0,1,0,0)"><svg viewBox="0 0 320 360" data-background-color="#8abcd7" preserveAspectRatio="xMidYMid meet" height="2250" width="2000" xmlns="http://www.w3.org/2000/svg" xmlns:xlink="http://www.w3.org/1999/xlink"><g id="tight-bounds" transform="matrix(1,0,0,1,0,0)"><svg viewBox="0 0 320 360" height="360" width="320"><g><svg></svg></g><g><svg viewBox="0 0 320 360" height="360" width="320"><g><path transform="translate(-25.80645,-5.80645) scale(10.32258,10.32258)" d="M18 33.5c8.55 0 15.5-6.95 15.5-15.5 0-8.55-6.95-15.5-15.5-15.5-8.55 0-15.5 6.95-15.5 15.5 0 8.55 6.95 15.5 15.5 15.5zM18.5 32.47v-1c7.04-0.26 12.71-5.93 12.97-12.97h1c-0.26 7.6-6.37 13.71-13.97 13.97zM18.5 3.53c7.6 0.26 13.71 6.37 13.97 13.97h-1c-0.26-7.04-5.93-12.71-12.97-12.97zM30.5 18c0 6.89-5.61 12.5-12.5 12.5-6.89 0-12.5-5.61-12.5-12.5 0-6.89 5.61-12.5 12.5-12.5 6.89 0 12.5 5.61 12.5 12.5zM17.5 3.53v1c-7.04 0.26-12.71 5.93-12.97 12.97h-1c0.26-7.6 6.37-13.71 13.97-13.97zM4.53 18.5c0.26 7.04 5.93 12.71 12.97 12.97v1c-7.6-0.26-13.71-6.37-13.97-13.97z" fill="#ffffff" fill-rule="nonzero" stroke="none" stroke-width="1" stroke-linecap="butt" stroke-linejoin="miter" stroke-miterlimit="10" stroke-dasharray="" stroke-dashoffset="0" font-family="none" font-weight="none" font-size="none" text-anchor="none" style="mix-blend-mode: normal" data-fill-palette-color="tertiary"></path></g><g transform="matrix(1,0,0,1,64,97.8259191032228)"><svg viewBox="0 0 192 164.3481617935544" height="164.3481617935544" width="192"><g><svg viewBox="0 0 192 164.3481617935544" height="164.3481617935544" width="192"><g transform="matrix(1,0,0,1,0,101.57375730966837)"><svg viewBox="0 0 192 62.77440448388602" height="62.77440448388602" width="192"><g id="textblocktransform"><svg viewBox="0 0 192 62.77440448388602" height="62.77440448388602" width="192" id="textblock"><g><svg viewBox="0 0 192 62.77440448388602" height="62.77440448388602" width="192"><g transform="matrix(1,0,0,1,0,0)"><svg width="192" viewBox="4.6 -35 107.05000000000001 35" height="62.77440448388602" data-palette-color="#ffffff"><path d="M4.6-35L18.8-35Q25.55-35 29.23-31.88 32.9-28.75 32.9-23.1L32.9-23.1Q32.9-17.2 29.23-13.93 25.55-10.65 18.8-10.65L18.8-10.65 10.5-10.65 10.5 0 4.6 0 4.6-35ZM10.5-15.7L18.8-15.7Q22.85-15.7 25.08-17.48 27.3-19.25 27.3-22.95L27.3-22.95Q27.3-26.5 25.08-28.23 22.85-29.95 18.8-29.95L18.8-29.95 10.5-29.95 10.5-15.7ZM26.8 0L19-12.95 24.8-12.95 33.5 0 26.8 0ZM40.75 0L40.75-35 47.6-35 59.7-11.25 71.7-35 78.55-35 78.55 0 73.1 0 73.05-26.75 61.55-3.65 57.8-3.65 46.2-26.75 46.2 0 40.75 0ZM83.6-29.95L83.6-35 111.65-35 111.65-29.95 100.55-29.95 100.55 0 94.65 0 94.65-29.95 83.6-29.95Z" opacity="1" transform="matrix(1,0,0,1,0,0)" fill="#ffffff" class="wordmark-text-0" data-fill-palette-color="primary" id="text-0"></path></svg></g></svg></g></svg></g></svg></g><g transform="matrix(1,0,0,1,54.13273326252586,0)"><svg viewBox="0 0 83.73453347494828 86.7542269967305" height="86.7542269967305" width="83.73453347494828"><g><svg xmlns="http://www.w3.org/2000/svg" xmlns:xlink="http://www.w3.org/1999/xlink" version="1.1" x="8" y="0" viewBox="34 19.5 81.9020906242396 104.9" style="enable-background:new 0 0 150 150;" xml:space="preserve" height="86.7542269967305" width="67.73453347494828" class="icon-icon-0" data-fill-palette-color="accent" id="icon-0"><g fill="#ffffff" data-fill-palette-color="accent"><path d="M53.1 57c1.6 0 2.9-1.3 2.9-2.9v-8c0-1.6-1.3-2.9-2.9-2.9-1.6 0-2.9 1.3-2.9 2.9v8C50.1 55.6 51.5 57 53.1 57zM52.1 46.1c0-0.5 0.4-0.9 0.9-0.9 0.5 0 0.9 0.4 0.9 0.9v8c0 0.5-0.4 0.9-0.9 0.9-0.5 0-0.9-0.4-0.9-0.9V46.1z" fill="#ffffff" data-fill-palette-color="accent"></path><path d="M96.7 57c1.6 0 2.9-1.3 2.9-2.9v-8c0-1.6-1.3-2.9-2.9-2.9-1.6 0-2.9 1.3-2.9 2.9v8C93.7 55.6 95 57 96.7 57zM95.7 46.1c0-0.5 0.4-0.9 0.9-0.9 0.5 0 0.9 0.4 0.9 0.9v8c0 0.5-0.4 0.9-0.9 0.9-0.5 0-0.9-0.4-0.9-0.9V46.1z" fill="#ffffff" data-fill-palette-color="accent"></path><path d="M67.3 78.9h-16c-0.6 0-1 0.4-1 1v16c0 0.6 0.4 1 1 1h16c0.6 0 1-0.4 1-1v-16C68.3 79.3 67.9 78.9 67.3 78.9zM66.3 94.8h-14v-14h14V94.8z" fill="#ffffff" data-fill-palette-color="accent"></path><path d="M54.1 75.2c1.8 0 3.3-1.5 3.3-3.3 0-1.8-1.5-3.3-3.3-3.3-1.8 0-3.3 1.5-3.3 3.3C50.7 73.7 52.2 75.2 54.1 75.2zM54.1 70.5c0.7 0 1.3 0.6 1.3 1.3 0 0.7-0.6 1.3-1.3 1.3-0.7 0-1.3-0.6-1.3-1.3C52.7 71.1 53.3 70.5 54.1 70.5z" fill="#ffffff" data-fill-palette-color="accent"></path><path d="M64.5 75.2c1.8 0 3.3-1.5 3.3-3.3 0-1.8-1.5-3.3-3.3-3.3-1.8 0-3.3 1.5-3.3 3.3C61.2 73.7 62.7 75.2 64.5 75.2zM64.5 70.5c0.7 0 1.3 0.6 1.3 1.3 0 0.7-0.6 1.3-1.3 1.3s-1.3-0.6-1.3-1.3C63.2 71.1 63.8 70.5 64.5 70.5z" fill="#ffffff" data-fill-palette-color="accent"></path><path d="M69 48.9c0-1.2-1-2.1-2.1-2.1-1.2 0-2.1 1-2.1 2.1 0 1.2 1 2.1 2.1 2.1C68.1 51 69 50.1 69 48.9zM66.7 48.9c0-0.1 0.1-0.1 0.1-0.1 0.1 0 0.1 0.1 0.1 0.1C67 49.1 66.7 49.1 66.7 48.9z" fill="#ffffff" data-fill-palette-color="accent"></path><path d="M82.8 46.8c-1.2 0-2.1 1-2.1 2.1 0 1.2 1 2.1 2.1 2.1s2.1-1 2.1-2.1C85 47.7 84 46.8 82.8 46.8zM82.7 48.9c0-0.1 0.1-0.1 0.1-0.1 0.1 0 0.1 0.1 0.1 0.1C83 49.1 82.7 49.1 82.7 48.9z" fill="#ffffff" data-fill-palette-color="accent"></path><path d="M82.8 54.1h-16c-0.6 0-1 0.4-1 1s0.4 1 1 1h16c0.6 0 1-0.4 1-1S83.4 54.1 82.8 54.1z" fill="#ffffff" data-fill-palette-color="accent"></path><path d="M94.3 70.9H79.4c-3 0-5.4 2.4-5.4 5.4v15.1c0 3 2.4 5.4 5.4 5.4h11.2c0 0 0.1 0 0.1 0s0.1 0 0.1 0h3.3c3 0 5.4-2.4 5.4-5.4V76.3C99.7 73.3 97.3 70.9 94.3 70.9zM97.7 76.3v2.6h-5.9v-6h2.5C96.2 72.9 97.7 74.4 97.7 76.3zM83.9 86.9v-6h5.9v6H83.9zM89.8 88.9v6h-5.9v-6H89.8zM81.9 86.9H76v-6h5.9V86.9zM83.9 78.9v-6h5.9v6H83.9zM91.8 80.9h5.9v6h-5.9V80.9zM79.4 72.9h2.5v6H76v-2.6C76 74.4 77.5 72.9 79.4 72.9zM76 91.4v-2.5h5.9v6h-2.5C77.5 94.8 76 93.3 76 91.4zM94.3 94.8h-2.5v-6h5.9v2.5C97.7 93.3 96.2 94.8 94.3 94.8z" fill="#ffffff" data-fill-palette-color="accent"></path><path d="M55.1 85.4h8.4c0.6 0 1-0.4 1-1s-0.4-1-1-1h-8.4c-0.6 0-1 0.4-1 1S54.5 85.4 55.1 85.4z" fill="#ffffff" data-fill-palette-color="accent"></path><path d="M55.1 88.9h8.4c0.6 0 1-0.4 1-1s-0.4-1-1-1h-8.4c-0.6 0-1 0.4-1 1S54.5 88.9 55.1 88.9z" fill="#ffffff" data-fill-palette-color="accent"></path><path d="M108.1 68.6v-0.2c0-3-2.4-5.4-5.4-5.4H91.8V41.3c0-0.6-0.4-1-1-1H75.9c0-0.1 0.1-0.2 0.1-0.3v-3.2c0.7-0.4 1.1-1.1 1.1-1.9 0-1.2-1-2.1-2.1-2.1-1.2 0-2.1 1-2.1 2.1 0 0.8 0.5 1.5 1.1 1.9V40c0 0.1 0 0.2 0.1 0.3H58.9c-0.6 0-1 0.4-1 1v21.6H47.4c-3 0-5.4 2.4-5.4 5.4v0.2c-4.5 0.5-8 4.3-8 8.9v16c0 0.6 0.4 1 1 1h7v4.9c0 3 2.4 5.4 5.4 5.4H50v17.7h-7.3c-0.6 0-1 0.4-1 1s0.4 1 1 1H51h16c0.6 0 1-0.4 1-1v-18.7h13.6v18.7c0 0.6 0.4 1 1 1h16 8.3c0.6 0 1-0.4 1-1s-0.4-1-1-1h-7.3v-17.7h2.9c3 0 5.4-2.4 5.4-5.4v-4.9h7c0.6 0 1-0.4 1-1v-16C116 72.9 112.5 69.1 108.1 68.6zM59.9 42.3h29.9v20.6H59.9V42.3zM36 92.5v-15c0-3.5 2.6-6.4 6-6.9v21.9H36zM66.1 122.5H52v-17.7h14V122.5zM97.7 122.5h-14v-17.7h14V122.5zM106.1 99.4c0 1.9-1.5 3.4-3.4 3.4h-3.9-16H67.1 51h-3.7c-1.9 0-3.4-1.5-3.4-3.4v-5.9-24-1.2c0-1.9 1.5-3.4 3.4-3.4h11.5 31.9 11.8c1.9 0 3.4 1.5 3.4 3.4v1.2 24V99.4zM114 92.5h-6V70.6c3.4 0.5 6 3.4 6 6.9V92.5z" fill="#ffffff" data-fill-palette-color="accent"></path><path d="M74.9 28.6c-1.9 0-3.6 1.1-4.4 2.8-0.2 0.5 0 1.1 0.5 1.3s1.1 0 1.3-0.5c0.5-1 1.5-1.7 2.6-1.7 1.1 0 2.1 0.6 2.6 1.7 0.2 0.4 0.5 0.6 0.9 0.6 0.1 0 0.3 0 0.4-0.1 0.5-0.2 0.7-0.8 0.5-1.3C78.5 29.7 76.7 28.6 74.9 28.6z" fill="#ffffff" data-fill-palette-color="accent"></path><path d="M80.5 29.6c0.2 0.5 0.8 0.7 1.3 0.5 0.5-0.2 0.7-0.8 0.5-1.3-1.4-2.8-4.3-4.7-7.4-4.7-3.1 0-6.1 1.8-7.4 4.7-0.2 0.5 0 1.1 0.5 1.3 0.1 0.1 0.3 0.1 0.4 0.1 0.4 0 0.7-0.2 0.9-0.6 1-2.2 3.2-3.5 5.6-3.5C77.2 26.1 79.4 27.5 80.5 29.6z" fill="#ffffff" data-fill-palette-color="accent"></path><path d="M65.3 27.2c0.1 0.1 0.3 0.1 0.4 0.1 0.4 0 0.7-0.2 0.9-0.6 1.5-3.2 4.7-5.2 8.2-5.2 3.5 0 6.7 2.1 8.2 5.2 0.2 0.5 0.8 0.7 1.3 0.5 0.5-0.2 0.7-0.8 0.5-1.3-1.8-3.9-5.8-6.4-10-6.4-4.3 0-8.2 2.5-10 6.4C64.6 26.4 64.8 27 65.3 27.2z" fill="#ffffff" data-fill-palette-color="accent"></path></g></svg></g></svg></g><g><rect width="54.13273326252586" height="5.661060579542269" y="80.09316641718823" x="137.86726673747415" fill="#ffffff" data-fill-palette-color="accent"></rect><rect width="54.13273326252586" height="5.661060579542269" y="80.09316641718823" x="0" fill="#ffffff" data-fill-palette-color="accent"></rect><rect width="54.13273326252586" height="5.661060579542269" y="68.77104525810368" x="137.86726673747415" fill="#ffffff" data-fill-palette-color="accent"></rect><rect width="54.13273326252586" height="5.661060579542269" y="68.77104525810368" x="0" fill="#ffffff" data-fill-palette-color="accent"></rect></g></svg></g></svg></g></svg></g><defs></defs></svg><rect width="320" height="360" fill="none" stroke="none" visibility="hidden"></rect></g></svg></g></svg>